{
	"asset":{
		"generator":"Khronos glTF Blender I/O v5.1.18",
		"version":"2.0"
	},
	"scene":0,
	"scenes":[
		{
			"name":"Scene",
			"nodes":[
				0
			]
		}
	],
	"nodes":[
		{
			"mesh":0,
			"name":"Cube",
			"translation":[
				0,
				2.4084177017211914,
				1.4625996351242065
			]
		}
	],
	"materials":[
		{
			"doubleSided":true,
			"name":"FactionColor",
			"pbrMetallicRoughness":{
				"baseColorFactor":[
					0.8000074625015259,
					0.17326855659484863,
					0,
					1
				],
				"roughnessFactor":0.5
			}
		}
	],
	"meshes":[
		{
			"name":"Cube",
			"primitives":[
				{
					"attributes":{
						"POSITION":0,
						"NORMAL":1,
						"TEXCOORD_0":2
					},
					"indices":3,
					"material":0
				}
			]
		}
	],
	"accessors":[
		{
			"bufferView":0,
			"componentType":5126,
			"count":2772,
			"max":[
				2.459280252456665,
				1.107290506362915,
				2.7394304275512695
			],
			"min":[
				-2.459280252456665,
				-1.8033158779144287,
				-6.274785041809082
			],
			"type":"VEC3"
		},
		{
			"bufferView":1,
			"componentType":5126,
			"count":2772,
			"type":"VEC3"
		},
		{
			"bufferView":2,
			"componentType":5126,
			"count":2772,
			"type":"VEC2"
		},
		{
			"bufferView":3,
			"componentType":5123,
			"count":4176,
			"type":"SCALAR"
		}
	],
	"bufferViews":[
		{
			"buffer":0,
			"byteLength":33264,
			"byteOffset":0,
			"target":34962
		},
		{
			"buffer":0,
			"byteLength":33264,
			"byteOffset":33264,
			"target":34962
		},
		{
			"buffer":0,
			"byteLength":22176,
			"byteOffset":66528,
			"target":34962
		},
		{
			"buffer":0,
			"byteLength":8352,
			"byteOffset":88704,
			"target":34963
		}
	],
	"buffers":[
		{
			"byteLength":97056,
			"uri":"Light_tank_Republic.bin"
		}
	]
}
