{
	"asset":{
		"generator":"Khronos glTF Blender I/O v5.1.18",
		"version":"2.0"
	},
	"extensionsUsed":[
		"KHR_materials_emissive_strength",
		"KHR_materials_specular",
		"KHR_materials_ior"
	],
	"scene":0,
	"scenes":[
		{
			"name":"Scene",
			"nodes":[
				0
			]
		}
	],
	"nodes":[
		{
			"mesh":0,
			"name":"BadgerTurret.013"
		}
	],
	"materials":[
		{
			"doubleSided":true,
			"emissiveFactor":[
				1,
				1,
				1
			],
			"emissiveTexture":{
				"index":0
			},
			"extensions":{
				"KHR_materials_emissive_strength":{
					"emissiveStrength":20
				},
				"KHR_materials_specular":{
					"specularFactor":0.2824423611164093
				},
				"KHR_materials_ior":{
					"ior":1.4500000476837158
				}
			},
			"name":"ImphenziaPixPal.001",
			"pbrMetallicRoughness":{
				"baseColorTexture":{
					"index":1
				},
				"metallicRoughnessTexture":{
					"index":2
				}
			}
		}
	],
	"meshes":[
		{
			"name":"Cube.013",
			"primitives":[
				{
					"attributes":{
						"POSITION":0,
						"NORMAL":1,
						"TEXCOORD_0":2
					},
					"indices":3,
					"material":0
				}
			]
		}
	],
	"textures":[
		{
			"sampler":0,
			"source":0
		},
		{
			"sampler":0,
			"source":1
		},
		{
			"sampler":0,
			"source":2
		}
	],
	"images":[
		{
			"mimeType":"image/png",
			"name":"ImphenziaPixel-Emission",
			"uri":"../../chrome-fusion/addons/pixpal_tools/Imphenzia/PixPal/Textures/ImphenziaPixel-Emission.png"
		},
		{
			"mimeType":"image/png",
			"name":"ImphenziaPixel-BaseColor",
			"uri":"../../chrome-fusion/addons/pixpal_tools/Imphenzia/PixPal/Textures/ImphenziaPixel-BaseColor.png"
		},
		{
			"mimeType":"image/png",
			"name":"ImphenziaPixel-Attributes",
			"uri":"../../chrome-fusion/addons/pixpal_tools/Imphenzia/PixPal/Textures/ImphenziaPixel-Attributes.png"
		}
	],
	"accessors":[
		{
			"bufferView":0,
			"componentType":5126,
			"count":19371,
			"max":[
				3.156959056854248,
				2.898646831512451,
				3.3364670276641846
			],
			"min":[
				-3.0731804370880127,
				-0.005987830460071564,
				-3.176919937133789
			],
			"type":"VEC3"
		},
		{
			"bufferView":1,
			"componentType":5126,
			"count":19371,
			"type":"VEC3"
		},
		{
			"bufferView":2,
			"componentType":5126,
			"count":19371,
			"type":"VEC2"
		},
		{
			"bufferView":3,
			"componentType":5123,
			"count":48558,
			"type":"SCALAR"
		}
	],
	"bufferViews":[
		{
			"buffer":0,
			"byteLength":232452,
			"byteOffset":0,
			"target":34962
		},
		{
			"buffer":0,
			"byteLength":232452,
			"byteOffset":232452,
			"target":34962
		},
		{
			"buffer":0,
			"byteLength":154968,
			"byteOffset":464904,
			"target":34962
		},
		{
			"buffer":0,
			"byteLength":97116,
			"byteOffset":619872,
			"target":34963
		}
	],
	"samplers":[
		{
			"magFilter":9728,
			"minFilter":9984
		}
	],
	"buffers":[
		{
			"byteLength":716988,
			"uri":"Light_tank_Chassis.bin"
		}
	]
}
