{
	"asset":{
		"generator":"Khronos glTF Blender I/O v5.1.18",
		"version":"2.0"
	},
	"extensionsUsed":[
		"KHR_materials_emissive_strength",
		"KHR_materials_specular",
		"KHR_materials_ior"
	],
	"scene":0,
	"scenes":[
		{
			"name":"Scene",
			"nodes":[
				0
			]
		}
	],
	"nodes":[
		{
			"mesh":0,
			"name":"TankTurret.003",
			"rotation":[
				0.07381687313318253,
				0,
				0,
				0.9972718358039856
			],
			"scale":[
				0.7768144607543945,
				0.7768144607543945,
				0.7768144607543945
			],
			"translation":[
				-0.0618356317281723,
				1.9957853555679321,
				0.04153001308441162
			]
		}
	],
	"materials":[
		{
			"doubleSided":true,
			"emissiveFactor":[
				1,
				1,
				1
			],
			"emissiveTexture":{
				"index":0
			},
			"extensions":{
				"KHR_materials_emissive_strength":{
					"emissiveStrength":20
				},
				"KHR_materials_specular":{
					"specularFactor":0.2824423611164093
				},
				"KHR_materials_ior":{
					"ior":1.4500000476837158
				}
			},
			"name":"ImphenziaPixPal",
			"pbrMetallicRoughness":{
				"baseColorTexture":{
					"index":1
				},
				"metallicRoughnessTexture":{
					"index":2
				}
			}
		}
	],
	"meshes":[
		{
			"name":"C-Component#114.004",
			"primitives":[
				{
					"attributes":{
						"POSITION":0,
						"NORMAL":1,
						"TEXCOORD_0":2
					},
					"indices":3,
					"material":0
				}
			]
		}
	],
	"textures":[
		{
			"sampler":0,
			"source":0
		},
		{
			"sampler":0,
			"source":1
		},
		{
			"sampler":0,
			"source":2
		}
	],
	"images":[
		{
			"mimeType":"image/png",
			"name":"ImphenziaPixel-Emission",
			"uri":"ImphenziaPixel-Emission.png"
		},
		{
			"mimeType":"image/png",
			"name":"ImphenziaPixel-BaseColor",
			"uri":"ImphenziaPixel-BaseColor.png"
		},
		{
			"mimeType":"image/png",
			"name":"ImphenziaPixel-Attributes",
			"uri":"ImphenziaPixel-Attributes.png"
		}
	],
	"accessors":[
		{
			"bufferView":0,
			"componentType":5126,
			"count":1937,
			"max":[
				2.563117265701294,
				2.139582395553589,
				8.02554702758789
			],
			"min":[
				-2.4146437644958496,
				-0.5265060663223267,
				-5.811949253082275
			],
			"type":"VEC3"
		},
		{
			"bufferView":1,
			"componentType":5126,
			"count":1937,
			"type":"VEC3"
		},
		{
			"bufferView":2,
			"componentType":5126,
			"count":1937,
			"type":"VEC2"
		},
		{
			"bufferView":3,
			"componentType":5123,
			"count":3927,
			"type":"SCALAR"
		}
	],
	"bufferViews":[
		{
			"buffer":0,
			"byteLength":23244,
			"byteOffset":0,
			"target":34962
		},
		{
			"buffer":0,
			"byteLength":23244,
			"byteOffset":23244,
			"target":34962
		},
		{
			"buffer":0,
			"byteLength":15496,
			"byteOffset":46488,
			"target":34962
		},
		{
			"buffer":0,
			"byteLength":7854,
			"byteOffset":61984,
			"target":34963
		}
	],
	"samplers":[
		{
			"magFilter":9728,
			"minFilter":9984
		}
	],
	"buffers":[
		{
			"byteLength":69840,
			"uri":"tank_turret.bin"
		}
	]
}
