{
	"asset":{
		"generator":"Khronos glTF Blender I/O v5.1.18",
		"version":"2.0"
	},
	"scene":0,
	"scenes":[
		{
			"name":"Scene",
			"nodes":[
				0
			]
		}
	],
	"nodes":[
		{
			"mesh":0,
			"name":"Cube.006"
		}
	],
	"materials":[
		{
			"doubleSided":true,
			"name":"Rock01",
			"pbrMetallicRoughness":{
				"baseColorFactor":[
					0.43414777517318726,
					0.14702942967414856,
					0.03189541772007942,
					1
				],
				"metallicFactor":0,
				"roughnessFactor":0.5
			}
		}
	],
	"meshes":[
		{
			"name":"Cube.006",
			"primitives":[
				{
					"attributes":{
						"POSITION":0,
						"NORMAL":1,
						"TEXCOORD_0":2
					},
					"indices":3,
					"material":0
				}
			]
		}
	],
	"accessors":[
		{
			"bufferView":0,
			"componentType":5126,
			"count":2746,
			"max":[
				312.92962646484375,
				5.058439254760742,
				343.06097412109375
			],
			"min":[
				-351.32049560546875,
				2.9839701652526855,
				-321.9552917480469
			],
			"type":"VEC3"
		},
		{
			"bufferView":1,
			"componentType":5126,
			"count":2746,
			"type":"VEC3"
		},
		{
			"bufferView":2,
			"componentType":5126,
			"count":2746,
			"type":"VEC2"
		},
		{
			"bufferView":3,
			"componentType":5123,
			"count":5334,
			"type":"SCALAR"
		}
	],
	"bufferViews":[
		{
			"buffer":0,
			"byteLength":32952,
			"byteOffset":0,
			"target":34962
		},
		{
			"buffer":0,
			"byteLength":32952,
			"byteOffset":32952,
			"target":34962
		},
		{
			"buffer":0,
			"byteLength":21968,
			"byteOffset":65904,
			"target":34962
		},
		{
			"buffer":0,
			"byteLength":10668,
			"byteOffset":87872,
			"target":34963
		}
	],
	"buffers":[
		{
			"byteLength":98540,
			"uri":"GroundTile03.bin"
		}
	]
}
