{
	"asset":{
		"generator":"Khronos glTF Blender I/O v5.1.18",
		"version":"2.0"
	},
	"scene":0,
	"scenes":[
		{
			"name":"Scene",
			"nodes":[
				0
			]
		}
	],
	"nodes":[
		{
			"mesh":0,
			"name":"Cube.044",
			"scale":[
				2,
				2,
				2
			],
			"translation":[
				749.9947509765625,
				-4.5677490234375,
				295.4704895019531
			]
		}
	],
	"materials":[
		{
			"doubleSided":true,
			"name":"Rock01",
			"pbrMetallicRoughness":{
				"baseColorFactor":[
					0.43414777517318726,
					0.14702942967414856,
					0.03189541772007942,
					1
				],
				"metallicFactor":0,
				"roughnessFactor":0.5
			}
		},
		{
			"doubleSided":true,
			"name":"Mountain_top",
			"pbrMetallicRoughness":{
				"baseColorFactor":[
					0.4167441725730896,
					0.1307530552148819,
					0.023845549672842026,
					1
				],
				"metallicFactor":0,
				"roughnessFactor":0.5
			}
		}
	],
	"meshes":[
		{
			"name":"Cube.041",
			"primitives":[
				{
					"attributes":{
						"POSITION":0,
						"NORMAL":1,
						"TEXCOORD_0":2,
						"TEXCOORD_1":3
					},
					"indices":4,
					"material":0
				},
				{
					"attributes":{
						"POSITION":5,
						"NORMAL":6,
						"TEXCOORD_0":7,
						"TEXCOORD_1":8
					},
					"indices":9,
					"material":1
				}
			]
		}
	],
	"accessors":[
		{
			"bufferView":0,
			"componentType":5126,
			"count":12183,
			"max":[
				53.69065856933594,
				15.731258392333984,
				12.586395263671875
			],
			"min":[
				-46.60350799560547,
				-1.6176652908325195,
				-14.064504623413086
			],
			"type":"VEC3"
		},
		{
			"bufferView":1,
			"componentType":5126,
			"count":12183,
			"type":"VEC3"
		},
		{
			"bufferView":2,
			"componentType":5126,
			"count":12183,
			"type":"VEC2"
		},
		{
			"bufferView":3,
			"componentType":5126,
			"count":12183,
			"type":"VEC2"
		},
		{
			"bufferView":4,
			"componentType":5123,
			"count":18303,
			"type":"SCALAR"
		},
		{
			"bufferView":5,
			"componentType":5126,
			"count":3474,
			"max":[
				53.201229095458984,
				15.778223037719727,
				9.551213264465332
			],
			"min":[
				-43.994163513183594,
				2.7231431007385254,
				-14.006620407104492
			],
			"type":"VEC3"
		},
		{
			"bufferView":6,
			"componentType":5126,
			"count":3474,
			"type":"VEC3"
		},
		{
			"bufferView":7,
			"componentType":5126,
			"count":3474,
			"type":"VEC2"
		},
		{
			"bufferView":8,
			"componentType":5126,
			"count":3474,
			"type":"VEC2"
		},
		{
			"bufferView":9,
			"componentType":5123,
			"count":3582,
			"type":"SCALAR"
		}
	],
	"bufferViews":[
		{
			"buffer":0,
			"byteLength":146196,
			"byteOffset":0,
			"target":34962
		},
		{
			"buffer":0,
			"byteLength":146196,
			"byteOffset":146196,
			"target":34962
		},
		{
			"buffer":0,
			"byteLength":97464,
			"byteOffset":292392,
			"target":34962
		},
		{
			"buffer":0,
			"byteLength":97464,
			"byteOffset":389856,
			"target":34962
		},
		{
			"buffer":0,
			"byteLength":36606,
			"byteOffset":487320,
			"target":34963
		},
		{
			"buffer":0,
			"byteLength":41688,
			"byteOffset":523928,
			"target":34962
		},
		{
			"buffer":0,
			"byteLength":41688,
			"byteOffset":565616,
			"target":34962
		},
		{
			"buffer":0,
			"byteLength":27792,
			"byteOffset":607304,
			"target":34962
		},
		{
			"buffer":0,
			"byteLength":27792,
			"byteOffset":635096,
			"target":34962
		},
		{
			"buffer":0,
			"byteLength":7164,
			"byteOffset":662888,
			"target":34963
		}
	],
	"buffers":[
		{
			"byteLength":670052,
			"uri":"Mountain02.bin"
		}
	]
}
