{
	"asset":{
		"generator":"Khronos glTF Blender I/O v5.1.18",
		"version":"2.0"
	},
	"scene":0,
	"scenes":[
		{
			"name":"Scene",
			"nodes":[
				0
			]
		}
	],
	"nodes":[
		{
			"mesh":0,
			"name":"Cube.036",
			"scale":[
				2,
				2,
				2
			],
			"translation":[
				582.7188720703125,
				15.095993041992188,
				286.72894287109375
			]
		}
	],
	"materials":[
		{
			"doubleSided":true,
			"name":"Rock02",
			"pbrMetallicRoughness":{
				"baseColorFactor":[
					0.28315332531929016,
					0.09989693760871887,
					0.024158034473657608,
					1
				],
				"metallicFactor":0,
				"roughnessFactor":0.5
			}
		},
		{
			"doubleSided":true,
			"name":"Rock01",
			"pbrMetallicRoughness":{
				"baseColorFactor":[
					0.43414777517318726,
					0.14702942967414856,
					0.03189541772007942,
					1
				],
				"metallicFactor":0,
				"roughnessFactor":0.5
			}
		}
	],
	"meshes":[
		{
			"name":"Cube.038",
			"primitives":[
				{
					"attributes":{
						"POSITION":0,
						"NORMAL":1,
						"TEXCOORD_0":2,
						"TEXCOORD_1":3
					},
					"indices":4,
					"material":0
				},
				{
					"attributes":{
						"POSITION":5,
						"NORMAL":6,
						"TEXCOORD_0":7,
						"TEXCOORD_1":8
					},
					"indices":9,
					"material":1
				}
			]
		}
	],
	"accessors":[
		{
			"bufferView":0,
			"componentType":5126,
			"count":16883,
			"max":[
				32.25559616088867,
				15.80672836303711,
				32.483009338378906
			],
			"min":[
				-31.35606575012207,
				-10.157185554504395,
				-32.30180740356445
			],
			"type":"VEC3"
		},
		{
			"bufferView":1,
			"componentType":5126,
			"count":16883,
			"type":"VEC3"
		},
		{
			"bufferView":2,
			"componentType":5126,
			"count":16883,
			"type":"VEC2"
		},
		{
			"bufferView":3,
			"componentType":5126,
			"count":16883,
			"type":"VEC2"
		},
		{
			"bufferView":4,
			"componentType":5123,
			"count":18201,
			"type":"SCALAR"
		},
		{
			"bufferView":5,
			"componentType":5126,
			"count":4239,
			"max":[
				32.40896987915039,
				15.462251663208008,
				32.33789825439453
			],
			"min":[
				-31.596092224121094,
				-11.0775728225708,
				-32.26638412475586
			],
			"type":"VEC3"
		},
		{
			"bufferView":6,
			"componentType":5126,
			"count":4239,
			"type":"VEC3"
		},
		{
			"bufferView":7,
			"componentType":5126,
			"count":4239,
			"type":"VEC2"
		},
		{
			"bufferView":8,
			"componentType":5126,
			"count":4239,
			"type":"VEC2"
		},
		{
			"bufferView":9,
			"componentType":5123,
			"count":5859,
			"type":"SCALAR"
		}
	],
	"bufferViews":[
		{
			"buffer":0,
			"byteLength":202596,
			"byteOffset":0,
			"target":34962
		},
		{
			"buffer":0,
			"byteLength":202596,
			"byteOffset":202596,
			"target":34962
		},
		{
			"buffer":0,
			"byteLength":135064,
			"byteOffset":405192,
			"target":34962
		},
		{
			"buffer":0,
			"byteLength":135064,
			"byteOffset":540256,
			"target":34962
		},
		{
			"buffer":0,
			"byteLength":36402,
			"byteOffset":675320,
			"target":34963
		},
		{
			"buffer":0,
			"byteLength":50868,
			"byteOffset":711724,
			"target":34962
		},
		{
			"buffer":0,
			"byteLength":50868,
			"byteOffset":762592,
			"target":34962
		},
		{
			"buffer":0,
			"byteLength":33912,
			"byteOffset":813460,
			"target":34962
		},
		{
			"buffer":0,
			"byteLength":33912,
			"byteOffset":847372,
			"target":34962
		},
		{
			"buffer":0,
			"byteLength":11718,
			"byteOffset":881284,
			"target":34963
		}
	],
	"buffers":[
		{
			"byteLength":893004,
			"uri":"Mountain01.bin"
		}
	]
}
