{
	"asset":{
		"generator":"Khronos glTF Blender I/O v5.1.18",
		"version":"2.0"
	},
	"extensionsUsed":[
		"KHR_materials_emissive_strength",
		"KHR_materials_specular",
		"KHR_materials_ior"
	],
	"scene":0,
	"scenes":[
		{
			"name":"Scene",
			"nodes":[
				0
			]
		}
	],
	"nodes":[
		{
			"mesh":0,
			"name":"tree01",
			"scale":[
				2.504892349243164,
				2.504892349243164,
				2.504892349243164
			]
		}
	],
	"materials":[
		{
			"doubleSided":true,
			"emissiveFactor":[
				1,
				1,
				1
			],
			"emissiveTexture":{
				"index":0
			},
			"extensions":{
				"KHR_materials_emissive_strength":{
					"emissiveStrength":20
				},
				"KHR_materials_specular":{
					"specularFactor":0.2824423611164093
				},
				"KHR_materials_ior":{
					"ior":1.4500000476837158
				}
			},
			"name":"ImphenziaPixPal",
			"pbrMetallicRoughness":{
				"baseColorTexture":{
					"index":1
				},
				"metallicRoughnessTexture":{
					"index":2
				}
			}
		}
	],
	"meshes":[
		{
			"name":"tripo_mesh_f16f1945-606f-493c-9903-9484dca55daa",
			"primitives":[
				{
					"attributes":{
						"POSITION":0,
						"NORMAL":1,
						"TEXCOORD_0":2
					},
					"indices":3,
					"material":0
				}
			]
		}
	],
	"textures":[
		{
			"sampler":0,
			"source":0
		},
		{
			"sampler":0,
			"source":1
		},
		{
			"sampler":0,
			"source":2
		}
	],
	"images":[
		{
			"mimeType":"image/png",
			"name":"ImphenziaPixel-Emission",
			"uri":"../../chrome-fusion/addons/pixpal_tools/Imphenzia/PixPal/Materials/ImphenziaPixel-Emission.png"
		},
		{
			"mimeType":"image/png",
			"name":"ImphenziaPixel-BaseColor",
			"uri":"../../chrome-fusion/addons/pixpal_tools/Imphenzia/PixPal/Materials/ImphenziaPixel-BaseColor.png"
		},
		{
			"mimeType":"image/png",
			"name":"ImphenziaPixel-Attributes",
			"uri":"../../chrome-fusion/addons/pixpal_tools/Imphenzia/PixPal/Materials/ImphenziaPixel-Attributes.png"
		}
	],
	"accessors":[
		{
			"bufferView":0,
			"componentType":5126,
			"count":2081,
			"max":[
				0.3863750696182251,
				1.0807926654815674,
				0.48644351959228516
			],
			"min":[
				-0.4693973660469055,
				-0.037961363792419434,
				-0.46839889883995056
			],
			"type":"VEC3"
		},
		{
			"bufferView":1,
			"componentType":5126,
			"count":2081,
			"type":"VEC3"
		},
		{
			"bufferView":2,
			"componentType":5126,
			"count":2081,
			"type":"VEC2"
		},
		{
			"bufferView":3,
			"componentType":5123,
			"count":10407,
			"type":"SCALAR"
		}
	],
	"bufferViews":[
		{
			"buffer":0,
			"byteLength":24972,
			"byteOffset":0,
			"target":34962
		},
		{
			"buffer":0,
			"byteLength":24972,
			"byteOffset":24972,
			"target":34962
		},
		{
			"buffer":0,
			"byteLength":16648,
			"byteOffset":49944,
			"target":34962
		},
		{
			"buffer":0,
			"byteLength":20814,
			"byteOffset":66592,
			"target":34963
		}
	],
	"samplers":[
		{
			"magFilter":9728,
			"minFilter":9984
		}
	],
	"buffers":[
		{
			"byteLength":87408,
			"uri":"Tree01.bin"
		}
	]
}
