{
	"asset":{
		"generator":"Khronos glTF Blender I/O v5.1.18",
		"version":"2.0"
	},
	"extensionsUsed":[
		"KHR_materials_emissive_strength",
		"KHR_materials_specular",
		"KHR_materials_ior"
	],
	"scene":0,
	"scenes":[
		{
			"name":"Scene",
			"nodes":[
				0
			]
		}
	],
	"nodes":[
		{
			"mesh":0,
			"name":"Cube.001",
			"translation":[
				-15.18085765838623,
				3.312638521194458,
				-0.1298409104347229
			]
		}
	],
	"materials":[
		{
			"doubleSided":true,
			"emissiveFactor":[
				1,
				1,
				1
			],
			"emissiveTexture":{
				"index":0
			},
			"extensions":{
				"KHR_materials_emissive_strength":{
					"emissiveStrength":20
				},
				"KHR_materials_specular":{
					"specularFactor":0.2824423611164093
				},
				"KHR_materials_ior":{
					"ior":1.4500000476837158
				}
			},
			"name":"ImphenziaPixPal",
			"pbrMetallicRoughness":{
				"baseColorTexture":{
					"index":1
				},
				"metallicRoughnessTexture":{
					"index":2
				}
			}
		},
		{
			"doubleSided":true,
			"name":"old_steel_01"
		}
	],
	"meshes":[
		{
			"name":"Cube.002",
			"primitives":[
				{
					"attributes":{
						"POSITION":0,
						"NORMAL":1,
						"TEXCOORD_0":2
					},
					"indices":3,
					"material":0
				},
				{
					"attributes":{
						"POSITION":4,
						"NORMAL":5,
						"TEXCOORD_0":6
					},
					"indices":7,
					"material":1
				}
			]
		}
	],
	"textures":[
		{
			"sampler":0,
			"source":0
		},
		{
			"sampler":0,
			"source":1
		},
		{
			"sampler":0,
			"source":2
		}
	],
	"images":[
		{
			"mimeType":"image/png",
			"name":"ImphenziaPixel-Emission",
			"uri":"ImphenziaPixel-Emission.png"
		},
		{
			"mimeType":"image/png",
			"name":"ImphenziaPixel-BaseColor",
			"uri":"ImphenziaPixel-BaseColor.png"
		},
		{
			"mimeType":"image/png",
			"name":"ImphenziaPixel-Attributes",
			"uri":"ImphenziaPixel-Attributes.png"
		}
	],
	"accessors":[
		{
			"bufferView":0,
			"componentType":5126,
			"count":110031,
			"max":[
				2.136362314224243,
				2.7204067707061768,
				3.176600933074951
			],
			"min":[
				-2.134077310562134,
				-3.3073971271514893,
				-2.6691720485687256
			],
			"type":"VEC3"
		},
		{
			"bufferView":1,
			"componentType":5126,
			"count":110031,
			"type":"VEC3"
		},
		{
			"bufferView":2,
			"componentType":5126,
			"count":110031,
			"type":"VEC2"
		},
		{
			"bufferView":3,
			"componentType":5125,
			"count":171768,
			"type":"SCALAR"
		},
		{
			"bufferView":4,
			"componentType":5126,
			"count":72,
			"max":[
				0.6398370265960693,
				-0.024943605065345764,
				0.32711806893348694
			],
			"min":[
				-0.6285972595214844,
				-0.466752827167511,
				-0.1146911084651947
			],
			"type":"VEC3"
		},
		{
			"bufferView":5,
			"componentType":5126,
			"count":72,
			"type":"VEC3"
		},
		{
			"bufferView":6,
			"componentType":5126,
			"count":72,
			"type":"VEC2"
		},
		{
			"bufferView":7,
			"componentType":5123,
			"count":132,
			"type":"SCALAR"
		}
	],
	"bufferViews":[
		{
			"buffer":0,
			"byteLength":1320372,
			"byteOffset":0,
			"target":34962
		},
		{
			"buffer":0,
			"byteLength":1320372,
			"byteOffset":1320372,
			"target":34962
		},
		{
			"buffer":0,
			"byteLength":880248,
			"byteOffset":2640744,
			"target":34962
		},
		{
			"buffer":0,
			"byteLength":687072,
			"byteOffset":3520992,
			"target":34963
		},
		{
			"buffer":0,
			"byteLength":864,
			"byteOffset":4208064,
			"target":34962
		},
		{
			"buffer":0,
			"byteLength":864,
			"byteOffset":4208928,
			"target":34962
		},
		{
			"buffer":0,
			"byteLength":576,
			"byteOffset":4209792,
			"target":34962
		},
		{
			"buffer":0,
			"byteLength":264,
			"byteOffset":4210368,
			"target":34963
		}
	],
	"samplers":[
		{
			"magFilter":9728,
			"minFilter":9984
		}
	],
	"buffers":[
		{
			"byteLength":4210632,
			"uri":"AfterImage.bin"
		}
	]
}
